<svg xmlns="http://www.w3.org/2000/svg" width="62.63" height="62.63" viewBox="0 0 62.63 62.63">
  <path id="direct" d="M59.979.1,1.391,19.248A2.022,2.022,0,0,0,1,22.915L23.144,35.79a2.02,2.02,0,0,0,2.22-.124l6.224-4.622-4.622,6.224a2.021,2.021,0,0,0-.125,2.22L39.716,61.629a2.022,2.022,0,0,0,3.667-.388L62.528,2.652A2.022,2.022,0,0,0,59.979.1ZM40.942,55.7,31,38.607,42.988,22.469a2.02,2.02,0,0,0-2.827-2.827L24.024,31.628,6.932,21.689,57.45,5.181ZM21.212,44.276,7.8,57.691A2.02,2.02,0,1,1,4.94,54.834L18.355,41.419a2.02,2.02,0,1,1,2.857,2.857ZM3.49,44.784a2.02,2.02,0,0,1,0-2.857l5.293-5.293a2.02,2.02,0,0,1,2.857,2.857L6.348,44.784A2.02,2.02,0,0,1,3.49,44.784ZM26,50.99a2.02,2.02,0,0,1,0,2.857L20.7,59.141a2.02,2.02,0,1,1-2.857-2.857l5.293-5.293a2.02,2.02,0,0,1,2.857,0Z" transform="translate(0 -0.001)" fill="#00c48c"/>
</svg>
