<svg xmlns="http://www.w3.org/2000/svg" width="36.23" height="29.083" viewBox="0 0 36.23 29.083">
  <path id="Path_10454" data-name="Path 10454" d="M35.416-109.545l-6.088-9.824a.89.89,0,0,0-.745-.4.89.89,0,0,0-.745.4l-6.088,9.824a1.734,1.734,0,0,0-.308,1.1,7.159,7.159,0,0,0,7.141,6.547,7.159,7.159,0,0,0,7.141-6.547A1.734,1.734,0,0,0,35.416-109.545Zm-6.833,5.857a5.426,5.426,0,0,1-5.068-3.573H33.63A5.4,5.4,0,0,1,28.583-103.688Zm-5.039-5.359,5.042-8.137,5.077,8.137Zm6.379,10.719H18.757v-19.777a3.565,3.565,0,0,0,2.68-3.447h8.486a.446.446,0,0,0,.447-.447v-.893a.447.447,0,0,0-.447-.447H20.928a2.873,2.873,0,0,0-1.067-1.176,3.556,3.556,0,0,0-2-.61,3.556,3.556,0,0,0-2,.61,2.873,2.873,0,0,0-1.067,1.176H5.806a.447.447,0,0,0-.447.447V-122a.446.446,0,0,0,.447.447h8.486a3.565,3.565,0,0,0,2.68,3.447v19.777H5.806a.446.446,0,0,0-.447.447v.893a.446.446,0,0,0,.447.447H29.922a.446.446,0,0,0,.447-.447v-.893A.446.446,0,0,0,29.922-98.329ZM16.078-121.552a1.787,1.787,0,0,1,1.786-1.786,1.787,1.787,0,0,1,1.786,1.786,1.787,1.787,0,0,1-1.786,1.786A1.787,1.787,0,0,1,16.078-121.552Zm-1.791,13.1a1.734,1.734,0,0,0-.308-1.1l-6.088-9.824a.89.89,0,0,0-.745-.4.89.89,0,0,0-.745.4L.312-109.545a1.734,1.734,0,0,0-.308,1.1A7.159,7.159,0,0,0,7.145-101.9,7.159,7.159,0,0,0,14.286-108.448Zm-7.138-8.736,5.077,8.137H2.106Zm-5.07,9.924H12.193a5.4,5.4,0,0,1-5.048,3.573A5.426,5.426,0,0,1,2.077-107.261Z" transform="translate(0.251 125.375)" fill="#1d252d" stroke="#1d252d" stroke-width="0.5"/>
</svg>
