<svg xmlns="http://www.w3.org/2000/svg" width="28" height="28" viewBox="0 0 28 28">
  <g id="Group_13292" data-name="Group 13292" transform="translate(-696 -2431)">
    <circle id="shutterstock_324917183_1_" data-name="shutterstock_324917183 (1)" cx="14" cy="14" r="14" transform="translate(696 2431)" fill="#dde0e1"/>
    <path id="Combined_Shape" data-name="Combined Shape" d="M7.951,2.7A2.7,2.7,0,1,1,5.246,0,2.7,2.7,0,0,1,7.951,2.7Zm-4.425,0A1.721,1.721,0,1,0,5.246.983,1.721,1.721,0,0,0,3.525,2.7ZM.083,11.8H8.235a2.078,2.078,0,0,0,2.174-1.967V7.867A2.078,2.078,0,0,0,8.235,5.9H2.257A2.078,2.078,0,0,0,.083,7.867Zm8.228-.983H1.067V7.867a1.055,1.055,0,0,1,1.115-.983h6.13a1.055,1.055,0,0,1,1.115.983V9.834A1.055,1.055,0,0,1,8.311,10.817Z" transform="translate(704.917 2439)" fill="#8e9aa0" fill-rule="evenodd"/>
  </g>
</svg>
